<svg xmlns="http://www.w3.org/2000/svg" width="208.545" height="84.323" viewBox="0 0 208.545 84.323">
  <path id="Path_2370" data-name="Path 2370" d="M2520.046,1443.952a398.811,398.811,0,0,0-51.238,4.372c8.55-.3,17.1-.651,25.648-.891,13.128-.368,26.25-.517,39.155,2.875a61.344,61.344,0,0,1,19.944,8.856,33.258,33.258,0,0,1,7.488,6.95c5.316,6.932,5.852,15.06,1.5,22.793a36.877,36.877,0,0,1-9.455,10.722c-9.766,7.783-20.75,12.672-32.187,16.361a222.006,222.006,0,0,1-50.509,9.548,248.441,248.441,0,0,1-38.329.382c-18.383-1.352-36.6-3.848-54.015-11.063a54.191,54.191,0,0,1-14.6-8.616c-8.255-7.016-8.7-14.884-1.282-22.992,4.569-4.993,10.049-8.529,15.752-11.62,15.344-8.316,31.569-13.87,48.08-18.371a309.7,309.7,0,0,1,87.084-11.047C2515.455,1442.252,2517.833,1442.35,2520.046,1443.952Zm-37.516,7.677c-11,.338-18.655.51-26.31.832-5.253.221-10.553-.21-15.748.9a272.522,272.522,0,0,0-45.327,14.214c-8.774,3.563-17.356,7.6-25.129,13.483a29.014,29.014,0,0,0-7.946,8.332c-2.31,3.937-2.059,7.2.791,10.686a30.173,30.173,0,0,0,8.2,6.634c9.384,5.613,19.556,8.537,29.934,10.693a240.594,240.594,0,0,0,63.475,4.15,236.757,236.757,0,0,0,48.772-7.75c11.954-3.275,23.484-7.794,34.016-15.059a41.245,41.245,0,0,0,10.333-9.709c5.724-7.929,5.124-15.795-1.7-22.533a41.164,41.164,0,0,0-11.389-7.709c-9.747-4.666-20.047-6.441-30.545-7.073C2502.37,1451.028,2490.78,1451.3,2482.53,1451.629Z" transform="translate(-2356.914 -1442.169)" fill="#434038"/>
</svg>
